<?xml version="1.0" encoding="UTF-8" standalone="no"?>
<!-- Created with Inkscape (http://www.inkscape.org/) -->
<svg id="svg3014" xmlns:rdf="http://www.w3.org/1999/02/22-rdf-syntax-ns#" xmlns="http://www.w3.org/2000/svg" height="24" width="24" version="1.1" xmlns:cc="http://creativecommons.org/ns#" xmlns:dc="http://purl.org/dc/elements/1.1/">
 <metadata id="metadata3019">
  <rdf:RDF>
   <cc:Work rdf:about="">
    <dc:format>image/svg+xml</dc:format>
    <dc:type rdf:resource="http://purl.org/dc/dcmitype/StillImage"/>
    <dc:title/>
   </cc:Work>
  </rdf:RDF>
 </metadata>
 <path id="rect3001-6" style="opacity:.3" d="m8 5c-0.554 0-1 1.446-1 2v2h-2.25c-0.4155 0-0.75 0.3345-0.75 0.75v5.5c0 0.416 0.3345 0.75 0.75 0.75h2.25v4c0 0.554 0.446 1 1 1h8c0.554 0 1-0.446 1-1v-4h2.25c0.416 0 0.75-0.334 0.75-0.75v-5.5c0-0.4155-0.334-0.75-0.75-0.75h-2.25v-2c0-0.554-0.446-2-1-2zm0.75 2h6.5c0.416 0 0.75 0.3345 0.75 0.75v2.25h-8v-2.25c0-0.4155 0.3345-0.75 0.75-0.75zm-0.75 7h8v5h-8z"/>
 <path id="rect3001" style="fill:#dfdbd2" d="m8 5c-0.554 0-1 0.446-1 1v2h-2c-0.4155 0-1 0.5845-1 1v5c0 0.4155 0.5845 1 1 1h2v4c0 0.554 0.446 1 1 1h8c0.554 0 1-0.446 1-1v-4h2c0.4155 0 1-0.5845 1-1v-5c0-0.4155-0.584-1-1-1h-2v-2c0-0.554-0.446-1-1-1zm0.75 1h6.5c0.416 0 0.75 0.3345 0.75 0.75v2.25h-8v-2.25c0-0.4155 0.3345-0.75 0.75-0.75zm4.25 4h1v1h-1zm2 0h1v1h-1zm2 0h1v1h-1zm-9 3h8v6h-8zm1 2v1h6v-1zm0 2v1h4v-1z"/>
</svg>
