<?xml version="1.0" encoding="UTF-8" standalone="no"?>
<!-- Created with Inkscape (http://www.inkscape.org/) -->
<svg id="svg86343" xmlns:rdf="http://www.w3.org/1999/02/22-rdf-syntax-ns#" xmlns="http://www.w3.org/2000/svg" height="192" width="148" version="1.1" xmlns:cc="http://creativecommons.org/ns#" xmlns:dc="http://purl.org/dc/elements/1.1/">
 <metadata id="metadata86349">
  <rdf:RDF>
   <cc:Work rdf:about="">
    <dc:format>image/svg+xml</dc:format>
    <dc:type rdf:resource="http://purl.org/dc/dcmitype/StillImage"/>
    <dc:title/>
   </cc:Work>
  </rdf:RDF>
 </metadata>
 <g id="g10545" transform="translate(592.43 -287.62)">
  <path id="rect10526" style="stroke-width:1px;color:#000000;stroke:#babdb6;fill:#d3d7cf" d="m351.17 385.07c-2.2523 0-3.6183 1.5307-4.1674 4.0895l-1.47 6.84h-1.41c-1.9944 0-3.5938 1.5994-3.5938 3.5938v116.41l-2.53 29.12c-0.1873 2.1551 1.6259 3.9204 3.75 4.125l1.625 6.6639h2.2087l-1.4024 1.5803s3.5396 7.3799 5.8377 7.4683l1.4285-0.00069 0.0512 7.3167 3.976-2.3789-0.0292-4.9864 1.385 0.0197c2.8284 0 5.4279-7.6486 5.4279-7.6486l-1.5299-1.3704h2.2087l1.6562-6.7264c1.9669-0.35188 3.5464-2.0222 3.4062-4.0625l-2.48-29.11v-116.41c0-1.9944-1.5994-3.5938-3.5938-3.5938h-1.4062l-1.53-6.84c-0.53643-2.3978-1.89-4.0895-4.1674-4.0895z" transform="translate(-928.41 -95.844)"/>
  <rect id="rect10541" style="stroke-width:1px;color:#000000;stroke:#babdb6;fill:#eeeeec" rx="3.25" ry="3.25" height="35.215" width="9.0059" y="385.91" x="-579.93"/>
 </g>
 <g id="g10631" style="opacity:.2" transform="translate(592.43 -302.48)">
  <path id="path10552" style="stroke:#000;stroke-width:1px;fill:none" d="m357.25 492.91h35.28v-52.043h82.47" transform="translate(-928.41 -79.844)"/>
  <path id="path10556" d="m-568.16 309.03h32.25v14.949h82.5" style="stroke:#000;stroke-width:1px;fill:none"/>
  <path id="path10629" style="stroke:#000;stroke-width:1px;fill:none" d="m-577.26 492.07h41.386v-48.246h82.47"/>
  <path id="path86913" d="m-571.16 430.07h48.108v-27.009h69.642" style="stroke:#000;stroke-width:1px;fill:none"/>
 </g>
 <path id="path31572" style="opacity:.5;stroke-width:1px;color:#000000;stroke:#babdb6;fill:#eeeeec" d="m12.427 118.46h8.9094"/>
</svg>
