<?xml version="1.0" encoding="UTF-8" standalone="no"?>
<!-- Created with Inkscape (http://www.inkscape.org/) -->
<svg id="svg86343" xmlns:rdf="http://www.w3.org/1999/02/22-rdf-syntax-ns#" xmlns="http://www.w3.org/2000/svg" height="192" width="148" version="1.1" xmlns:cc="http://creativecommons.org/ns#" xmlns:dc="http://purl.org/dc/elements/1.1/">
 <metadata id="metadata86349">
  <rdf:RDF>
   <cc:Work rdf:about="">
    <dc:format>image/svg+xml</dc:format>
    <dc:type rdf:resource="http://purl.org/dc/dcmitype/StillImage"/>
    <dc:title/>
   </cc:Work>
  </rdf:RDF>
 </metadata>
 <g id="g10631" style="opacity:.2" transform="translate(592.43 -302.48)">
  <path id="path10552" style="stroke:#000;stroke-width:1px;fill:none" d="m353.5 569.88h38.062v-166.14h83.438" transform="translate(-928.41 -79.844)"/>
 </g>
 <path id="path14406" style="stroke-width:1px;color:#000000;stroke:#babdb6;fill:#d3d7cf" d="m9.3203 142.87c0.50526 10.779-1.4254 24.834-1.4254 24.834l1.5599 1.0522s1.3627 5.4912 1.8508 8.2077c0.48811 2.7165 3.6796 7.5712 3.6796 7.5712l1.5454 0.00001-0.000008 3.8985c-0.03586 1.3093 1.9838 1.3855 1.9838 0.00009l0.000008-3.8985h1.4517s3.1915-4.8547 3.6796-7.5712c0.48811-2.7165 1.8508-8.2077 1.8508-8.2077l1.5599-1.0523s-1.9307-14.054-1.4254-24.834c0.505-10.78 2.86-28.94 2.86-50.932s-4.129-83.129-4.838-85.865c-0.696-2.6862-3.181-5.0407-6.098-4.9456-0.0525-0.00312-0.10731 0.0019-0.15952 0-2.918-0.098-5.4 2.2578-6.097 4.9456-0.709 2.7359-4.838 63.873-4.838 85.865 0.000023 21.992 2.355 40.15 2.8603 50.93z"/>
</svg>
