<?xml version="1.0" encoding="UTF-8" standalone="no"?>
<!-- Created with Inkscape (http://www.inkscape.org/) -->
<svg id="svg86343" xmlns:rdf="http://www.w3.org/1999/02/22-rdf-syntax-ns#" xmlns="http://www.w3.org/2000/svg" height="192" width="148" version="1.1" xmlns:cc="http://creativecommons.org/ns#" xmlns:dc="http://purl.org/dc/elements/1.1/">
 <metadata id="metadata86349">
  <rdf:RDF>
   <cc:Work rdf:about="">
    <dc:format>image/svg+xml</dc:format>
    <dc:type rdf:resource="http://purl.org/dc/dcmitype/StillImage"/>
    <dc:title/>
   </cc:Work>
  </rdf:RDF>
 </metadata>
 <g id="g10631" style="opacity:.2" transform="translate(592.43 -302.48)">
  <path id="path10552" style="stroke:#000;stroke-width:1px;fill:none" d="m384.35 508.88h8.1802v-68.258h82.47" transform="translate(-928.41 -79.844)"/>
  <path id="path10556" d="m-553.63 305h16.782v18.86h83.442" style="stroke:#000;stroke-width:1px;fill:none"/>
  <path id="path10629" style="stroke:#000;stroke-width:1px;fill:none" d="m-557.79 491.98h42.82v-88.953h61.562"/>
 </g>
 <path id="path5306" style="stroke-width:1px;color:#000000;stroke:#babdb6;fill:#d3d7cf" d="m36.762 1.2259c-1.4328 0-2.5942 1.8864-2.5942 4.2135 0 0.06-0.002 0.11387 0 0.17315h-0.9224l-9.2239 88.194c0.9224 9.235-17.887 29.7-17.887 29.7-4.0296 5.2712-3.9083 22.056 3.5898 27.557l12.452 8.3115 5.0732 15.238h0.5765c0.4809 6.5987 3.7818 16.161 5.3038 16.161 2.11 0 4.7273-11.13 4.7273-19.163 0-0.1448 0.002-0.28896 0-0.43293 0 0 5.3861-9.2445 8.1286-20.173 6.2831-2.8114 5.7829-13.65 0.49916-16.498l-0.0094-3.9197c0.83292-0.84067 1.7586-2.0003 1.7586-3.5353 0-1.886-0.81769-3.4944-1.9889-4.2135l-1.155-14.74-4.467-102.48h-1.2683c0.002-0.0591 0-0.11322 0-0.17315 0-2.327-1.1615-4.2135-2.5942-4.2135z"/>
</svg>
