<?xml version="1.0" encoding="UTF-8" standalone="no"?>
<!-- Created with Inkscape (http://www.inkscape.org/) -->
<svg id="svg86343" xmlns:rdf="http://www.w3.org/1999/02/22-rdf-syntax-ns#" xmlns="http://www.w3.org/2000/svg" height="192" width="148" version="1.1" xmlns:cc="http://creativecommons.org/ns#" xmlns:dc="http://purl.org/dc/elements/1.1/">
 <metadata id="metadata86349">
  <rdf:RDF>
   <cc:Work rdf:about="">
    <dc:format>image/svg+xml</dc:format>
    <dc:type rdf:resource="http://purl.org/dc/dcmitype/StillImage"/>
    <dc:title/>
   </cc:Work>
  </rdf:RDF>
 </metadata>
 <path id="path14406" style="stroke-width:1px;color:#000000;stroke:#babdb6;fill:#d3d7cf" d="m9.3203 143.05c0.50486 10.771-1.4254 24.647-1.4254 24.647l1.5599 1.0522s1.3627 5.4912 1.8508 8.2077c0.48811 2.7165 3.6796 7.5712 3.6796 7.5712l1.5454 0.00001-0.000008 3.8985c-0.03586 1.3093 1.9838 1.3855 1.9838 0.00009l0.000008-3.8985h1.4517s3.1915-4.8547 3.6796-7.5712c0.48811-2.7165 1.8508-8.2077 1.8508-8.2077l1.5599-1.0523s-1.7865-11.863-1.5454-21.631c0.02477-1.0038 2.5975-2.0746 2.6503-3.2023 0.27099-5.7811 0.70762-18.643 1.0898-26.631 0.05442-1.1374-1.4226-2.2977-1.371-3.481 0.34439-7.9016 0.61119-10.828 0.61119-20.818 0-18.011-2.7694-60.275-4.1616-77.215-0.04797-0.58366-1.3958-0.70379-1.4317-1.1208-0.19466-2.2584-1.0084-7.2279-1.0844-7.5212-0.48846-1.8848-2.2322-3.5369-4.2785-3.4701-0.03684-0.00219-0.07529 0.00133-0.11193 0-2.0477-0.068768-3.7897 1.5842-4.2785 3.4701-0.07358 0.28392-0.88249 5.1712-1.0682 7.3053-0.04236 0.48682-1.4005 0.67401-1.4579 1.3735-1.3932 16.967-4.1586 59.181-4.1585 77.178 0.000023 21.992 2.3554 40.345 2.8603 51.116z"/>
 <path id="path10552" style="opacity:.2;stroke:#000;stroke-width:1px;fill:none" d="m28.911 120.55h27.646v-61.97h82.47"/>
 <path id="path10556" d="m24.277 6.5471h32.25v15h82.5" style="opacity:.2;stroke:#000;stroke-width:1px;fill:none"/>
 <path id="path10629" style="opacity:.2;stroke:#000;stroke-width:1px;fill:none" d="m17.027 189.58h64.53v-48h57.47"/>
 <path id="path86913" d="m28.027 138.53h41.53v-37.942h69.47" style="opacity:.2;stroke:#000;stroke-width:1px;fill:none"/>
</svg>
