<?xml version="1.0" encoding="UTF-8" standalone="no"?>
<!-- Created with Inkscape (http://www.inkscape.org/) -->
<svg id="svg7384" xmlns:rdf="http://www.w3.org/1999/02/22-rdf-syntax-ns#" xmlns="http://www.w3.org/2000/svg" height="16" width="16" version="1.1" xmlns:cc="http://creativecommons.org/ns#" xmlns:dc="http://purl.org/dc/elements/1.1/">
 <metadata id="metadata90">
  <rdf:RDF>
   <cc:Work rdf:about="">
    <dc:format>image/svg+xml</dc:format>
    <dc:type rdf:resource="http://purl.org/dc/dcmitype/StillImage"/>
    <dc:title>Gnome Symbolic Icon Theme</dc:title>
   </cc:Work>
  </rdf:RDF>
 </metadata>
 <title id="title9167">Gnome Symbolic Icon Theme</title>
 <g id="layer11" transform="translate(-62 -530)">
  <path id="rect11749-53" style="block-progression:tb;text-indent:0;color:#bebebe;text-transform:none;fill:#bebebe" d="m64.188 530c-1.2016 0-2.1875 0.98751-2.1875 2.1874v8.6244c0 1.1998 0.98591 2.1874 2.1875 2.1874h11.625c1.2016 0 2.1875-0.98752 2.1875-2.1874v-8.6244c0-1.1998-0.98591-2.1874-2.1875-2.1874h-11.625zm0 1.9999h11.625c0.1238 0 0.1875 0.0566 0.1875 0.18749v8.6244c0 0.13088-0.0637 0.18748-0.1875 0.18748h-11.625c-0.1238 0-0.1875-0.0566-0.1875-0.18748v-8.6244c0-0.13088 0.0637-0.18749 0.1875-0.18749z"/>
  <path id="path11751-8" style="block-progression:tb;text-indent:0;color:#bebebe;text-transform:none;fill:#bebebe" d="m66.899 544a0.99324 0.99998 0 0 0 0.093 1.9978h5.9529a0.99225 0.99898 0 1 0 0 -1.9978h-5.9529a0.99225 0.99898 0 0 0 -0.093 0z"/>
  <path id="rect4262" style="opacity:.35;color:#000000;fill:#bebebe" d="m70 533v5.9996h-5v0.99993h10v-6.9995z"/>
  <path id="rect4262-6" style="color:#000000;fill:#bebebe" d="m69 533-4 4.9997h4z"/>
 </g>
</svg>
