<?xml version="1.0" encoding="UTF-8" standalone="no"?>
<!-- Generator: Adobe Illustrator 15.0.2, SVG Export Plug-In . SVG Version: 6.00 Build 0)  -->

<svg
   xmlns:dc="http://purl.org/dc/elements/1.1/"
   xmlns:cc="http://creativecommons.org/ns#"
   xmlns:rdf="http://www.w3.org/1999/02/22-rdf-syntax-ns#"
   xmlns:svg="http://www.w3.org/2000/svg"
   xmlns="http://www.w3.org/2000/svg"
   xmlns:sodipodi="http://sodipodi.sourceforge.net/DTD/sodipodi-0.dtd"
   xmlns:inkscape="http://www.inkscape.org/namespaces/inkscape"
   version="1.1"
   id="Layer_1"
   x="0px"
   y="0px"
   width="800"
   height="600"
   viewBox="0 0 800 600"
   enable-background="new 0 0 1024 768"
   xml:space="preserve"
   inkscape:version="0.48.3.1 r9886"
   sodipodi:docname="u1cloud.svg"><title
   id="title3046">Ubuntu One Your Cloud</title><metadata
   id="metadata69"><rdf:RDF><cc:Work
       rdf:about=""><dc:format>image/svg+xml</dc:format><dc:type
         rdf:resource="http://purl.org/dc/dcmitype/StillImage" /><dc:title>Ubuntu One Your Cloud</dc:title><dc:date>2012-03-13</dc:date><dc:creator><cc:Agent><dc:title>Peter Grundy</dc:title></cc:Agent></dc:creator><dc:rights><cc:Agent><dc:title /></cc:Agent></dc:rights><dc:publisher><cc:Agent><dc:title>Canonical Ltd.</dc:title></cc:Agent></dc:publisher><cc:license
         rdf:resource="http://www.gnu.org/licenses/gpl-3.0.html" /></cc:Work></rdf:RDF></metadata><defs
   id="defs67" /><sodipodi:namedview
   pagecolor="#ffffff"
   bordercolor="#666666"
   borderopacity="1"
   objecttolerance="10"
   gridtolerance="10"
   guidetolerance="10"
   inkscape:pageopacity="0"
   inkscape:pageshadow="2"
   inkscape:window-width="2048"
   inkscape:window-height="1105"
   id="namedview65"
   showgrid="true"
   inkscape:zoom="1.1106771"
   inkscape:cx="397.65534"
   inkscape:cy="384.00001"
   inkscape:window-x="0"
   inkscape:window-y="24"
   inkscape:window-maximized="1"
   inkscape:current-layer="Layer_1"><inkscape:grid
     type="xygrid"
     id="grid3013"
     empspacing="5"
     visible="true"
     enabled="true"
     snapvisiblegridlinesonly="true" /></sodipodi:namedview>



















<g
   id="g3015"
   transform="matrix(1.0650103,0,0,1.118185,-138.88955,48.010328)"><path
     style="fill:#dd4814"
     inkscape:connector-curvature="0"
     id="path3"
     d="M 834.63,230.602 C 809.666,205.64 776.712,191.574 741.537,190.788 776.971,126.117 754.402,44.689 690.224,7.635 626.051,-29.415 544.259,-8.262 505.961,54.733 467.67,-8.242 385.865,-29.409 321.704,7.637 257.54,44.685 234.985,126.109 270.379,190.758 c -73.703,1.668 -132.918,61.925 -132.918,136.024 0,75.151 60.903,136.068 136.056,136.068 0.016,0 0.031,-0.001 0.047,-0.001 v 0.016 h 464.37 c 0.16,10e-4 0.319,0.006 0.479,0.006 0.004,0 0.003,0 0.008,0 36.338,0 70.508,-14.154 96.209,-39.854 53.051,-53.051 53.051,-139.363 0,-192.415 z" /><g
     transform="translate(0,-168)"
     id="g5">
	<path
   style="fill:#ffffff"
   inkscape:connector-curvature="0"
   id="path7"
   d="m 741.257,293.568 h -11.338 c 0,-59.395 -48.321,-107.716 -107.717,-107.716 v -11.339 c 65.648,0 119.055,53.408 119.055,119.055 z" />
</g><g
     transform="translate(0,-168)"
     id="g9">
	<path
   style="fill:#ffffff"
   inkscape:connector-curvature="0"
   id="path11"
   d="m 712.91,293.568 h -11.338 c 0,-43.765 -35.605,-79.37 -79.37,-79.37 v -11.339 c 50.017,0 90.708,40.692 90.708,90.709 z" />
</g><path
     style="fill:#ffffff"
     inkscape:connector-curvature="0"
     id="path13"
     d="m 870.21,292.762 c -5.853,-22.79 -17.673,-44.35 -35.482,-62.16 -2.032,-2.032 -4.124,-3.983 -6.259,-5.87 H 738.55 c -56.27,0 -102.05,45.78 -102.05,102.04 0,9.4 7.61,17.01 17.01,17.01 9.391,0 17.01,-7.609 17.01,-17.01 0,-37.51 30.511,-68.02 68.03,-68.02 -9.399,0 -17.01,7.609 -17.01,17.01 0,9.39 7.61,17 17.01,17 h 131.66 z" /><path
     style="fill:#333333"
     inkscape:connector-curvature="0"
     id="path15"
     d="m 670.825,173.808 c 10.946,-10.945 15.825,-27.03 13.386,-44.131 -2.217,-15.542 -10.165,-30.83 -22.383,-43.051 -14.634,-14.631 -33.494,-23.022 -51.747,-23.022 -13.827,0 -26.417,4.975 -35.451,14.009 -10.942,10.944 -15.814,27.028 -13.367,44.128 2.224,15.539 10.18,30.828 22.401,43.05 8.572,8.572 18.602,14.981 29.105,18.835 l -90.695,90.696 c -4.186,4.186 -5.894,10.245 -4.511,16 1.384,5.756 5.659,10.377 11.289,12.204 l 74.368,24.124 c 1.744,0.564 3.512,0.834 5.252,0.834 7.172,0 13.842,-4.574 16.174,-11.765 2.898,-8.935 -1.995,-18.528 -10.93,-21.427 L 565.762,278.737 668.796,175.703 c 0.693,-0.611 1.374,-1.239 2.029,-1.895 z" /><g
     transform="translate(0,-168)"
     id="g17">
	<path
   style="fill:#ffffff"
   inkscape:connector-curvature="0"
   id="path19"
   d="M 521.701,316.401 401.438,196.138 c -3.189,-3.189 -7.516,-4.981 -12.026,-4.981 -4.51,0 -8.837,1.792 -12.026,4.981 l -84.184,84.185 c -6.642,6.642 -6.642,17.411 0,24.053 l 120.263,120.263 c 3.321,3.32 7.674,4.98 12.026,4.98 4.352,0 8.705,-1.66 12.026,-4.98 l 84.185,-84.185 c 3.189,-3.189 4.981,-7.516 4.981,-12.026 0,-4.51 -1.792,-8.838 -4.982,-12.027 z" />
	<g
   id="g21">
		<path
   style="fill:#333333"
   inkscape:connector-curvature="0"
   id="path23"
   d="m 390.182,344.559 c -13.628,0 -26.441,-5.308 -36.079,-14.946 -19.895,-19.894 -19.895,-52.264 -0.001,-72.157 9.636,-9.636 22.448,-14.943 36.076,-14.943 13.629,0 26.442,5.308 36.08,14.945 19.895,19.894 19.895,52.263 0.002,72.156 -9.638,9.637 -22.45,14.945 -36.078,14.945 z m -0.004,-68.031 c -4.542,0 -8.812,1.769 -12.023,4.98 -6.631,6.631 -6.63,17.42 0.001,24.052 3.214,3.213 7.484,4.983 12.026,4.983 4.542,0 8.812,-1.77 12.025,-4.982 6.63,-6.63 6.629,-17.419 -0.002,-24.051 -3.213,-3.212 -7.484,-4.982 -12.027,-4.982 z" />
	</g>
	<g
   id="g25">
		<path
   style="fill:#dd4814"
   inkscape:connector-curvature="0"
   id="path27"
   d="m 486.067,342.849 c -2.177,0 -4.353,-0.83 -6.014,-2.491 l -6.014,-6.014 c -3.32,-3.321 -3.32,-8.706 0,-12.026 l 6.012,-6.012 c 3.322,-3.321 8.705,-3.321 12.027,0 l 6.014,6.014 c 3.32,3.321 3.32,8.706 0,12.026 l -6.012,6.012 c -1.66,1.661 -3.836,2.491 -6.013,2.491 z" />
	</g>
	<g
   id="g29">
		<path
   style="fill:#ffffff"
   inkscape:connector-curvature="0"
   id="path31"
   d="m 453.746,311.529 c -2.177,0 -4.353,-0.83 -6.014,-2.491 -3.32,-3.321 -3.32,-8.706 0,-12.026 L 480.3,264.444 c 3.322,-3.321 8.705,-3.321 12.027,0 3.32,3.321 3.32,8.706 0,12.026 l -32.568,32.568 c -1.66,1.661 -3.836,2.491 -6.013,2.491 z" />
	</g>
</g><path
     style="fill:#ffffff"
     inkscape:connector-curvature="0"
     id="path33"
     d="M 358.545,258.727 H 256.498 v -8.504 c 0,-4.697 -3.808,-8.504 -8.504,-8.504 h -59.536 c -4.697,0 -8.504,3.807 -8.504,8.504 v 17.008 119.059 c 0,4.696 3.807,8.504 8.504,8.504 h 170.087 c 4.696,0 8.504,-3.808 8.504,-8.504 V 267.23 c 0,-4.697 -3.808,-8.503 -8.504,-8.503 z" /><path
     style="fill:#333333"
     inkscape:connector-curvature="0"
     id="path35"
     d="m 307.244,318.307 c -4.696,0 -8.504,3.807 -8.504,8.504 0,14.069 -11.443,25.516 -25.51,25.516 -14.068,0 -25.514,-11.446 -25.514,-25.516 0,-12.604 9.188,-23.094 21.215,-25.145 V 313.6 c 0,1.72 1.036,3.27 2.625,3.928 0.526,0.219 1.078,0.324 1.626,0.324 1.106,0 2.194,-0.432 3.008,-1.245 l 20.812,-20.812 c 1.66,-1.661 1.66,-4.353 0,-6.014 L 276.19,268.969 c -1.216,-1.216 -3.048,-1.579 -4.634,-0.921 -1.589,0.658 -2.625,2.208 -2.625,3.928 v 12.531 c -21.435,2.162 -38.223,20.31 -38.223,42.305 0,23.447 19.075,42.523 42.521,42.523 23.444,0 42.518,-19.076 42.518,-42.523 10e-4,-4.699 -3.807,-8.505 -8.503,-8.505 z" /><path
     style="fill:#333333"
     inkscape:connector-curvature="0"
     id="path37"
     d="m 738.449,343.785 c 9.395,0 17.01,-7.615 17.01,-17.008 0,-9.394 -7.615,-17.008 -17.01,-17.008 -9.39,0 -17.006,7.614 -17.006,17.008 0,9.393 7.617,17.008 17.006,17.008 z" /><g
     transform="translate(0,-168)"
     id="g39">
	<path
   style="fill:#ffffff"
   inkscape:connector-curvature="0"
   id="path41"
   d="m 789.292,511.852 c 0,28.13 -22.89,51.02 -51.02,51.02 h -63.351 c -0.149,0 -0.289,0 -0.439,-0.01 h -128.77 v -0.05 c -9.369,-0.03 -16.949,-7.64 -16.949,-17.01 0,-9.391 7.609,-17.01 17,-17.01 0.46,0 0.92,0.02 1.37,0.06 h 191.14 c 4.7,0 8.5,3.81 8.5,8.51 0,4.54 -3.57,8.26 -8.061,8.49 18.561,-0.23 33.58,-15.4 33.58,-34 0,-4.7 3.801,-8.5 8.5,-8.5 4.7,0 8.5,3.799 8.5,8.5 z" />
</g><path
     style="fill:#333333"
     inkscape:connector-curvature="0"
     id="path43"
     d="m 500.28,394.807 c 9.395,0 17.01,-7.615 17.01,-17.008 0,-9.394 -7.615,-17.008 -17.01,-17.008 -9.39,0 -17.006,7.614 -17.006,17.008 0,9.392 7.617,17.008 17.006,17.008 z" /><path
     style="fill:#333333"
     inkscape:connector-curvature="0"
     id="path45"
     d="m 454.926,394.807 c 9.395,0 17.01,-7.615 17.01,-17.008 0,-9.394 -7.615,-17.008 -17.01,-17.008 -9.39,0 -17.006,7.614 -17.006,17.008 0,9.392 7.616,17.008 17.006,17.008 z" /><path
     style="fill:#333333"
     inkscape:connector-curvature="0"
     id="path47"
     d="m 409.571,394.807 c 9.395,0 17.01,-7.615 17.01,-17.008 0,-9.394 -7.615,-17.008 -17.01,-17.008 -9.39,0 -17.006,7.614 -17.006,17.008 0,9.392 7.617,17.008 17.006,17.008 z" /><circle
     transform="translate(0,-168)"
     style="fill:#ffffff"
     sodipodi:ry="8.5039997"
     sodipodi:rx="8.5039997"
     sodipodi:cy="366.53799"
     sodipodi:cx="548.81598"
     id="circle49"
     r="8.5039997"
     cy="366.53799"
     cx="548.81598"
     d="m 557.31998,366.53799 c 0,4.69663 -3.80737,8.504 -8.504,8.504 -4.69663,0 -8.504,-3.80737 -8.504,-8.504 0,-4.69662 3.80737,-8.504 8.504,-8.504 4.69663,0 8.504,3.80738 8.504,8.504 z" /><circle
     transform="translate(0,-168)"
     style="fill:#ffffff"
     sodipodi:ry="8.5039997"
     sodipodi:rx="8.5039997"
     sodipodi:cy="398.608"
     sodipodi:cx="516.74597"
     id="circle51"
     r="8.5039997"
     cy="398.608"
     cx="516.74597"
     d="m 525.24997,398.608 c 0,4.69663 -3.80737,8.504 -8.504,8.504 -4.69663,0 -8.504,-3.80737 -8.504,-8.504 0,-4.69663 3.80737,-8.504 8.504,-8.504 4.69663,0 8.504,3.80737 8.504,8.504 z" /><g
     transform="translate(0,-168)"
     id="g53">
	<path
   style="fill:none"
   inkscape:connector-curvature="0"
   id="path55"
   d="m 738.421,630.87 c -0.005,0 -0.004,0 -0.008,0 -36.345,-0.002 -70.511,-14.154 -96.208,-39.852 -53.051,-53.052 -53.051,-139.364 0,-192.417 25.7,-25.699 59.869,-39.853 96.212,-39.853 36.343,0 70.512,14.153 96.213,39.853 53.051,53.053 53.051,139.364 0,192.415 -25.701,25.7 -59.871,39.854 -96.209,39.854 l 0,0 z" />
</g><circle
     transform="translate(0,-168)"
     style="fill:#ffffff"
     sodipodi:ry="8.5039997"
     sodipodi:rx="8.5039997"
     sodipodi:cy="430.67801"
     sodipodi:cx="484.67499"
     id="circle57"
     r="8.5039997"
     cy="430.67801"
     cx="484.67499"
     d="m 493.17899,430.67801 c 0,4.69663 -3.80737,8.504 -8.504,8.504 -4.69663,0 -8.504,-3.80737 -8.504,-8.504 0,-4.69663 3.80737,-8.504 8.504,-8.504 4.69663,0 8.504,3.80737 8.504,8.504 z" /><path
     style="fill:#ffffff"
     inkscape:connector-curvature="0"
     id="path59"
     d="m 458.617,300.762 c 3.322,-3.321 3.322,-8.706 0.002,-12.027 -3.322,-3.32 -8.706,-3.32 -12.027,0.002 -3.32,3.318 -3.32,8.703 0,12.025 3.321,3.32 8.707,3.32 12.025,0 z" /><path
     style="fill:#dd4814"
     inkscape:connector-curvature="0"
     id="path61"
     d="m 738.449,283.899 c 4.699,0 8.508,-3.809 8.508,-8.504 0,-4.695 -3.809,-8.504 -8.508,-8.504 -4.695,0 -8.5,3.809 -8.5,8.504 0,4.695 3.805,8.504 8.5,8.504 z" /><circle
     transform="translate(0,-168)"
     style="fill:#dd4814"
     sodipodi:ry="4.2519999"
     sodipodi:rx="4.2519999"
     sodipodi:cy="537.539"
     sodipodi:cx="738.271"
     id="circle63"
     r="4.2519999"
     cy="537.539"
     cx="738.271"
     d="m 742.523,537.539 c 0,2.34832 -1.90369,4.252 -4.252,4.252 -2.34832,0 -4.252,-1.90368 -4.252,-4.252 0,-2.34831 1.90368,-4.252 4.252,-4.252 2.34831,0 4.252,1.90369 4.252,4.252 z" /></g>
</svg>