<?xml version="1.0" encoding="UTF-8" standalone="no"?>
<!-- Created with Inkscape (http://www.inkscape.org/) -->
<svg id="svg7384" xmlns:rdf="http://www.w3.org/1999/02/22-rdf-syntax-ns#" xmlns="http://www.w3.org/2000/svg" height="16" width="16" version="1.1" xmlns:cc="http://creativecommons.org/ns#" xmlns:dc="http://purl.org/dc/elements/1.1/">
 <metadata id="metadata90">
  <rdf:RDF>
   <cc:Work rdf:about="">
    <dc:format>image/svg+xml</dc:format>
    <dc:type rdf:resource="http://purl.org/dc/dcmitype/StillImage"/>
    <dc:title>Gnome Symbolic Icon Theme</dc:title>
   </cc:Work>
  </rdf:RDF>
 </metadata>
 <title id="title9167">Gnome Symbolic Icon Theme</title>
 <g id="layer14" transform="translate(-442,-300)">
  <rect id="rect3816" style="fill:#bebebe" rx=".49935" ry=".49935" height="12" width="2" y="301" x="456"/>
  <rect id="rect3818" style="fill:#bebebe" rx=".53250" ry=".53250" height="12" width="2" y="301" x="447"/>
  <rect id="rect3820" ry=".49537" style="fill:#bebebe" rx=".49537" transform="rotate(-90)" height="11" width="2" y="447" x="-303"/>
  <path id="path3822" style="fill:#bebebe" d="m9.625 223.69a6.0625 5.9375 0 1 1 -12.125 0 6.0625 5.9375 0 1 1 12.125 0z" transform="matrix(.57732 0 0 .58947 443.44 180.64)"/>
  <path id="path3824" style="fill:#bebebe" d="m9.625 223.69a6.0625 5.9375 0 1 1 -12.125 0 6.0625 5.9375 0 1 1 12.125 0z" transform="matrix(.57732 0 0 .58946 452.44 180.65)"/>
 </g>
</svg>
